<svg xmlns="http://www.w3.org/2000/svg" viewBox="0 0 23.08 20"><g id="Layer_2" data-name="Layer 2"><g id="Layer_1-2" data-name="Layer 1"><path d="M22.7,16.92H21.16V8.07a.38.38,0,0,0-.38-.38H17.7V4.61a.38.38,0,0,0-.39-.38H15.77a.38.38,0,0,0-.38.38V7.69H12.7V4.61a.39.39,0,0,0-.39-.38H10.77a.38.38,0,0,0-.38.38V7.69H7.69V4.61a.38.38,0,0,0-.38-.38H5.77a.38.38,0,0,0-.38.38V7.69H2.31a.39.39,0,0,0-.39.38v8.85H.38a.38.38,0,0,0-.38.39v2.31A.38.38,0,0,0,.38,20H22.7a.38.38,0,0,0,.38-.38V17.31A.38.38,0,0,0,22.7,16.92ZM16.16,5h.77V7.69h-.77Zm-5,0h.77V7.69h-.77Zm-5,0h.77V7.69H6.16ZM5.77,8.46H20.39v2.15L19,12a.79.79,0,0,1-1.09,0L16.7,10.77a.76.76,0,0,0-1.08,0L14.39,12a.78.78,0,0,1-1.08,0l-1.22-1.22a.77.77,0,0,0-1.09,0L9.78,12a.79.79,0,0,1-1.09,0L7.47,10.77a.77.77,0,0,0-1.09,0L5.16,12a.79.79,0,0,1-1.09,0L2.69,10.61V8.46ZM2.69,11.69l.84.84a1.57,1.57,0,0,0,2.17,0l1.23-1.22,1.22,1.22a1.57,1.57,0,0,0,2.17,0l1.22-1.22,1.22,1.22a1.58,1.58,0,0,0,2.18,0l1.22-1.22,1.22,1.22a1.55,1.55,0,0,0,2.18,0l.83-.84v5.23H2.69Zm19.63,7.54H.77V17.69H22.32Z"/><path d="M6.25.13a3.5,3.5,0,0,0-.86,1.79c0,.86.5,1.54,1.15,1.54s1.15-.68,1.15-1.54A3.5,3.5,0,0,0,6.83.13.39.39,0,0,0,6.25.13Zm.29,2.56c-.16,0-.38-.3-.38-.77A2,2,0,0,1,6.54,1a2.14,2.14,0,0,1,.39.9C6.93,2.39,6.7,2.69,6.54,2.69Z"/><path d="M11.54,3.46c.65,0,1.16-.68,1.16-1.54A3.58,3.58,0,0,0,11.84.13a.41.41,0,0,0-.59,0,3.5,3.5,0,0,0-.86,1.79c0,.86.5,1.54,1.15,1.54Zm0-2.44a2,2,0,0,1,.39.9c0,.47-.23.77-.39.77s-.38-.3-.38-.77A2,2,0,0,1,11.54,1Z"/><path d="M16.54,3.46c.65,0,1.16-.68,1.16-1.54A3.58,3.58,0,0,0,16.84.13a.41.41,0,0,0-.59,0,3.5,3.5,0,0,0-.86,1.79c0,.86.51,1.54,1.15,1.54Zm0-2.44a2,2,0,0,1,.39.9c0,.47-.23.77-.39.77s-.38-.3-.38-.77A2,2,0,0,1,16.54,1Z"/></g></g></svg>