<?xml version="1.0" standalone="no"?>
<!DOCTYPE svg PUBLIC "-//W3C//DTD SVG 20010904//EN"
 "http://www.w3.org/TR/2001/REC-SVG-20010904/DTD/svg10.dtd">
<svg version="1.0" xmlns="http://www.w3.org/2000/svg"
 width="200.000000pt" height="200.000000pt" viewBox="0 0 200.000000 200.000000"
 preserveAspectRatio="xMidYMid meet">

<g transform="translate(0.000000,200.000000) scale(0.100000,-0.100000)"
fill="#000000" stroke="none">
<path d="M873 1428 c35 -47 82 -116 102 -153 40 -71 101 -233 91 -242 -3 -3
-56 28 -118 69 -173 115 -308 193 -488 284 -230 115 -230 115 -150 34 163
-166 328 -480 415 -790 14 -52 28 -100 30 -106 2 -8 25 -6 79 6 232 56 514 46
761 -25 44 -13 82 -21 84 -19 3 3 -37 47 -89 99 -52 52 -88 95 -81 95 8 0 56
-20 107 -44 107 -51 106 -51 26 64 -130 185 -313 387 -499 550 -106 93 -273
225 -321 254 -8 5 15 -30 51 -76z m321 -502 c126 -95 269 -216 264 -222 -2 -2
-46 6 -98 16 -60 12 -135 20 -203 20 -98 0 -108 2 -103 18 21 70 28 121 24
182 -2 38 -2 70 1 70 3 0 55 -38 115 -84z"/>
</g>
</svg>
