<svg xmlns="http://www.w3.org/2000/svg" viewBox="0 0 15 20"><g id="Layer_2" data-name="Layer 2"><g id="Layer_1-2" data-name="Layer 1"><path d="M6.62,0H6.53A7.58,7.58,0,0,0,0,7.5a7.49,7.49,0,0,0,2,5.14L.3,17.73h0v0a.78.78,0,0,0,.17.78.8.8,0,0,0,.79.18l2.31-.57,1.68,1.59A.83.83,0,0,0,6,20a.81.81,0,0,0,.54-.57h0v0l.94-2.76.94,2.76s0,0,0,0A.81.81,0,0,0,9,20a.83.83,0,0,0,.77-.24l1.68-1.59,2.31.57a.8.8,0,0,0,.79-.18.78.78,0,0,0,.17-.78h0v0L13,12.64A7.54,7.54,0,0,0,8.47,0h0a.45.45,0,0,0-.08.9A6.62,6.62,0,1,1,.9,7.5,6.67,6.67,0,0,1,6.65.91a.46.46,0,0,0,0-.91Zm.65,3A4.65,4.65,0,1,0,7.5,3Zm.23.91A3.63,3.63,0,1,1,3.87,7.5,3.61,3.61,0,0,1,7.5,3.88Zm4.73,9.43,1.53,4.48-2.34-.59a.46.46,0,0,0-.42.12L9.25,19,8,15.26v0H8L8.06,15a7.45,7.45,0,0,0,4.17-1.66Zm-9.46,0A7.49,7.49,0,0,0,7.1,15L5.75,19,4,17.32H4a.46.46,0,0,0-.42-.12l-2.34.59,1.53-4.47Z"/><polygon points="7.36 4.46 8.25 6.27 10.26 6.56 8.81 7.97 9.15 9.97 7.36 9.03 5.57 9.97 5.91 7.97 4.46 6.56 6.46 6.27 7.36 4.46"/></g></g></svg>