<svg xmlns="http://www.w3.org/2000/svg" viewBox="0 0 22.81 23.04"><defs><style>.cls-1{fill:#fff;}</style></defs><g id="Layer_2" data-name="Layer 2"><g id="Layer_1-2" data-name="Layer 1"><path class="cls-1" d="M21.17,7.81a5.81,5.81,0,0,0-1.23-.92A4.91,4.91,0,0,0,21,4,3.83,3.83,0,0,0,13.43,3a4.69,4.69,0,0,0-4-.06A3.83,3.83,0,0,0,1.82,4a5,5,0,0,0,1.08,3A5.71,5.71,0,0,0,.79,9,5.64,5.64,0,0,0,0,11.81v1.4a2.46,2.46,0,0,0,2.46,2.45H4.4A7.13,7.13,0,0,0,4,18.12v2.46A2.46,2.46,0,0,0,6.42,23h9.83a2.46,2.46,0,0,0,2.46-2.46V18.12a7.63,7.63,0,0,0-.44-2.46h2.08a2.46,2.46,0,0,0,2.46-2.45v-1.4a5.69,5.69,0,0,0-1.64-4Zm-4-6.08a2.25,2.25,0,0,1,1.56.65A2.21,2.21,0,0,1,19.35,4,3.27,3.27,0,0,1,18.06,6.4H18a1.45,1.45,0,0,1-1.71,0h-.06l-.11-.07A1.11,1.11,0,0,0,16,6,1.94,1.94,0,0,0,16,5.8h0a4.77,4.77,0,0,0-.68-1.28l-.14-.17-.2-.26a.54.54,0,0,1,0-.18,2.19,2.19,0,0,1,.66-1.54,2.26,2.26,0,0,1,1.54-.64ZM13.59,5.1a3.25,3.25,0,0,1,1,1.86,1.82,1.82,0,0,1,0,.33v.18a4.72,4.72,0,0,1-1.53,3.34,2.94,2.94,0,0,1-.41.31,2.46,2.46,0,0,1-.62.33,2.25,2.25,0,0,1-1.31,0,2.31,2.31,0,0,1-.74-.36A4.63,4.63,0,0,1,8.06,7.42V7.18a.33.33,0,0,1,0-.14A3.24,3.24,0,0,1,9.22,5a3.28,3.28,0,0,1,4.37.13ZM5.67,1.73A2.2,2.2,0,0,1,7.87,4a3.08,3.08,0,0,0-.24.27l-.17.19h0A5,5,0,0,0,7,5.09l0,.08c-.1.21-.2.43-.28.65a1,1,0,0,1-.08.29c0,.1-.06.21-.09.32a1.43,1.43,0,0,1-1.7,0h0A3.29,3.29,0,0,1,3.48,4,2.22,2.22,0,0,1,5.67,1.73Zm-4,11.48v-1.4a4,4,0,0,1,.72-2.29A4,4,0,0,1,4.27,8.05h.05a3,3,0,0,0,1,.3H6a3.32,3.32,0,0,0,.44-.06h.09v.16a4.29,4.29,0,0,0,.14.62,1,1,0,0,0,.09.28A4.71,4.71,0,0,0,7,9.87l.12.27c.09.18.19.35.3.53l.12.21h0c.16.23.33.46.51.67-.26.13-.5.28-.74.43l-.2.14c-.17.13-.34.26-.5.4l-.19.15h0A7.69,7.69,0,0,0,5.25,14l0,.07H2.46a.83.83,0,0,1-.58-.24.86.86,0,0,1-.24-.58Zm15.43,7.37a.82.82,0,0,1-.82.82H6.42a.83.83,0,0,1-.58-.24.78.78,0,0,1-.24-.58V18.12a5.62,5.62,0,0,1,.82-2.87A4.44,4.44,0,0,1,7,14.44a.18.18,0,0,1,0-.07,5.53,5.53,0,0,1,.64-.64l.1-.09h0a5.23,5.23,0,0,1,.73-.5l.13-.07h0a4.3,4.3,0,0,1,.82-.37h.07l.29.15h0a3.73,3.73,0,0,0,.56.2,3.12,3.12,0,0,0,.53.11h.24l.2.05a3.44,3.44,0,0,0,.45-.05h.13a4.15,4.15,0,0,0,.61-.14,6.65,6.65,0,0,0,.61-.27h0l.22.07.26.12c.13.05.25.12.38.18h0l.23.14.39.25.18.13h0c.18.14.35.3.52.46a5.93,5.93,0,0,1,1.71,4Zm4.1-7.37a.82.82,0,0,1-.82.82H17.46a2.48,2.48,0,0,0-.19-.26c-.05-.06-.09-.14-.14-.2-.18-.23-.38-.46-.58-.67a6.8,6.8,0,0,0-.82-.69l-.3-.18c-.21-.14-.43-.27-.65-.4,0,0-.1-.06-.15-.09a6.35,6.35,0,0,0,.49-.64l.14-.23c.1-.17.19-.34.28-.51l.13-.28h0a3.39,3.39,0,0,0,.2-.53A1.52,1.52,0,0,0,16,9.07a5.43,5.43,0,0,0,.16-.67V8.27a3.27,3.27,0,0,0,.54.13h.66a4.51,4.51,0,0,0,.53-.09,3.89,3.89,0,0,0,.51-.21h.05a4.07,4.07,0,0,1,2,1.42,4.13,4.13,0,0,1,.79,2.29Z"/></g></g></svg>