<svg xmlns="http://www.w3.org/2000/svg" viewBox="0 0 19.23 20"><g id="Layer_2" data-name="Layer 2"><g id="Layer_1-2" data-name="Layer 1"><path d="M12.09,10.05A5.34,5.34,0,1,0,6.61.9,5.24,5.24,0,0,0,4.34,4.31a5.3,5.3,0,0,0,.8,4,5.92,5.92,0,0,0,1.94,1.74A9.56,9.56,0,0,0,0,19.33.64.64,0,0,0,.67,20H18.56a.64.64,0,0,0,.67-.67A9.54,9.54,0,0,0,12.09,10.05ZM6.28,7.51a3.94,3.94,0,0,1-.6-3A3.79,3.79,0,0,1,7.41,2,3.72,3.72,0,0,1,9.62,1.3a3.13,3.13,0,0,1,.8.07,4,4,0,0,1,0,7.88,3.09,3.09,0,0,1-1.54,0A3.89,3.89,0,0,1,6.28,7.51ZM1.34,18.66a8.31,8.31,0,0,1,16.56,0Z"/></g></g></svg>